<?xml version="1.0" encoding="UTF-8"?>
<svg id="Layer_2" data-name="Layer 2" xmlns="http://www.w3.org/2000/svg" viewBox="0 0 70.43 70.26">
  <defs>
    <style>
      .cls-1 {
        fill: #016fd0;
      }

      .cls-2 {
        fill: #fff;
      }
    </style>
  </defs>
  <g id="Layer_1-2" data-name="Layer 1">
    <g id="layer1">
      <path id="path3078" class="cls-1" d="m0,0h70.26v37.93l-3.48,5.43,3.48,4.84v22.06H0v-35.75l2.17-2.5-2.17-2.39V0Z"/>
      <path id="path3082" class="cls-2" d="m13.64,48.96v-11.03h11.68l1.25,1.63,1.29-1.63h42.39v10.27s-1.11.75-2.39.76h-23.47l-1.41-1.74v1.74h-4.63v-2.97s-.63.41-2,.41h-1.58v2.55h-7.01l-1.25-1.67-1.27,1.67h-11.61Z"/>
      <path id="path3080" class="cls-2" d="m0,29.61l2.63-6.14h4.55l1.49,3.44v-3.44h5.66l.89,2.49.86-2.49h25.42v1.25s1.34-1.25,3.53-1.25l8.25.03,1.47,3.39v-3.42h4.74l1.3,1.95v-1.95h4.78v11.03h-4.78l-1.25-1.96v1.96h-6.96l-.7-1.74h-1.87l-.69,1.74h-4.72c-1.89,0-3.1-1.22-3.1-1.22v1.22h-7.12l-1.41-1.74v1.74H6.51l-.7-1.74h-1.87l-.69,1.74H0v-4.89Z"/>
      <path id="path3046" class="cls-1" d="m3.57,24.83L.01,33.09h2.31l.66-1.65h3.81l.65,1.65h2.36l-3.55-8.26h-2.69Zm1.31,1.92l1.16,2.89h-2.33l1.16-2.89Z"/>
      <path id="path3048" class="cls-1" d="m10.05,33.09v-8.26h3.29s1.91,5.34,1.91,5.34l1.87-5.34h3.26v8.26h-2.06v-6.09l-2.19,6.09h-1.81l-2.19-6.09v6.09h-2.06Z"/>
      <path id="path3050" class="cls-1" d="m21.79,33.09v-8.26h6.74v1.85h-4.65v1.41h4.54v1.74h-4.54v1.47h4.65v1.79h-6.74Z"/>
      <path id="path3052" class="cls-1" d="m29.72,24.83v8.26h2.06v-2.93h.87l2.48,2.93h2.52l-2.72-3.04c1.11-.09,2.27-1.05,2.27-2.54,0-1.74-1.36-2.68-2.89-2.68h-4.59Zm2.06,1.85h2.36c.57,0,.98.44.98.87,0,.55-.53.87-.95.87h-2.39v-1.74h0Z"/>
      <path id="path3054" class="cls-1" d="m40.15,33.09h-2.11v-8.26h2.11v8.26Z"/>
      <path id="path3056" class="cls-1" d="m45.15,33.09h-.46c-2.2,0-3.54-1.73-3.54-4.1s1.32-4.16,4.1-4.16h2.28v1.96h-2.37c-1.13,0-1.93.88-1.93,2.23,0,1.6.91,2.27,2.23,2.27h.54l-.87,1.8Z"/>
      <path id="path3058" class="cls-1" d="m49.65,24.83l-3.55,8.26h2.31l.66-1.65h3.81l.65,1.65h2.36l-3.55-8.26h-2.69Zm1.31,1.92l1.16,2.89h-2.33l1.16-2.89h0Z"/>
      <path id="path3060" class="cls-1" d="m56.13,33.09v-8.26h2.63l3.35,5.19v-5.19h2.06v8.26h-2.54l-3.44-5.32v5.32h-2.06Z"/>
      <path id="path3062" class="cls-1" d="m15.05,47.54v-8.26h6.74v1.85h-4.65v1.41h4.54v1.74h-4.54v1.47h4.65v1.79h-6.74Z"/>
      <path id="path3064" class="cls-1" d="m48.07,47.54v-8.26h6.74v1.85h-4.65v1.41h4.52v1.74h-4.52v1.47h4.65v1.79h-6.74Z"/>
      <path id="path3066" class="cls-1" d="m22.05,47.54l3.28-4.08-3.36-4.18h2.6l2,2.58,2.01-2.58h2.5l-3.31,4.13,3.29,4.13h-2.6l-1.94-2.54-1.89,2.54h-2.56Z"/>
      <path id="path3068" class="cls-1" d="m31.3,39.29v8.26h2.12v-2.61h2.17c1.84,0,3.23-.98,3.23-2.87,0-1.57-1.09-2.78-2.96-2.78h-4.56Zm2.12,1.87h2.29c.59,0,1.02.36,1.02.95,0,.55-.42.95-1.03.95h-2.28v-1.9h0Z"/>
      <path id="path3072" class="cls-1" d="m39.72,39.28v8.26h2.06v-2.93h.87l2.48,2.93h2.52l-2.72-3.04c1.11-.09,2.27-1.05,2.27-2.54,0-1.74-1.36-2.68-2.89-2.68h-4.59,0Zm2.06,1.85h2.36c.57,0,.98.44.98.87,0,.55-.53.87-.95.87h-2.39v-1.74Z"/>
      <path id="path3074" class="cls-1" d="m55.76,47.54v-1.79h4.13c.61,0,.88-.33.88-.69s-.26-.7-.88-.7h-1.87c-1.62,0-2.53-.99-2.53-2.47,0-1.32.83-2.6,3.24-2.6h4.02l-.87,1.86h-3.48c-.66,0-.87.35-.87.68s.25.72.76.72h1.96c1.81,0,2.59,1.03,2.59,2.37,0,1.44-.87,2.63-2.69,2.63h-4.4Z"/>
      <path id="path3076" class="cls-1" d="m63.34,47.54v-1.79h4.13c.61,0,.88-.33.88-.69s-.26-.7-.88-.7h-1.87c-1.62,0-2.53-.99-2.53-2.47,0-1.32.83-2.6,3.24-2.6h4.02l-.87,1.86h-3.48c-.66,0-.87.35-.87.68s.25.72.76.72h1.96c1.81,0,2.59,1.03,2.59,2.37,0,1.44-.87,2.63-2.69,2.63h-4.4Z"/>
    </g>
  </g>
</svg>