<?xml version="1.0" encoding="UTF-8"?>
<svg id="Layer_2" data-name="Layer 2" xmlns="http://www.w3.org/2000/svg" viewBox="0 0 141.82 45.8">
  <defs>
    <style>
      .cls-1 {
        fill: #1434cb;
      }
    </style>
  </defs>
  <g id="Layer_1-2" data-name="Layer 1">
    <path class="cls-1" d="m53.85.81l-18.57,44.3h-12.11L14.03,9.76c-.55-2.18-1.04-2.98-2.72-3.89-2.75-1.49-7.3-2.9-11.3-3.77L.27.81h19.5c2.49,0,4.72,1.65,5.28,4.52l4.83,25.63L41.81.81h12.04Zm47.46,29.84c.05-11.69-16.17-12.34-16.06-17.56.03-1.59,1.55-3.28,4.86-3.71,1.64-.21,6.17-.38,11.3,1.98l2.01-9.39c-2.76-1-6.3-1.96-10.72-1.96-11.33,0-19.3,6.02-19.37,14.64-.07,6.38,5.69,9.94,10.03,12.06,4.47,2.17,5.97,3.56,5.95,5.51-.03,2.97-3.56,4.28-6.86,4.33-5.76.09-9.1-1.56-11.77-2.8l-2.08,9.7c2.68,1.23,7.62,2.3,12.74,2.35,12.04,0,19.91-5.95,19.95-15.16m29.91,14.46h10.6L132.57.81h-9.78c-2.2,0-4.06,1.28-4.88,3.25l-17.2,41.05h12.03l2.39-6.62h14.7l1.38,6.62Zm-12.79-15.7l6.03-16.63,3.47,16.63h-9.5ZM70.22.81l-9.48,44.3h-11.46L58.76.81h11.46Z"/>
  </g>
</svg>